#!OML:ASF E:\Steps\Project 1\Capture day 1\Session 2\Subject.ASF
:FULLY-SPECIFIED
:DEGREES
34
root 8.96948 16.226 31.4879 -159.042 -2.0533 179.33
lowerback -27.5064 -1.79931 -5.64734
upperback -1.00339 -1.01179 -0.546379
thorax 14.3598 -1.0265 2.17788
lowerneck -1.63195 -0.881034 -2.55933
upperneck 10.1401 -1.81844 4.00674
head 3.65081 -0.999286 1.7
rclavicle 5.86415e-015 -2.54444e-014
rhumerus -29.8013 -13.7254 -83.3718
rradius 29.3454
rwrist 0.828816
rhand -7.27693 -54.3351
rfingers 7.12502
rthumb 18.6045 -83.4655
lclavicle 5.86415e-015 -2.54444e-014
lhumerus -25.1692 3.23951 83.9572
lradius 20.7447
lwrist -4.79026
lhand -20.5973 -12.6827
lfingers 7.12502
lthumb 5.76316 17.2189
rfemur -20.6967 8.25707 20.0814
rtibia 10.7974
rfoot -20.8598 -9.13751
rtoes -23.4348
lfemur -22.7986 -9.72661 -19.8837
ltibia 12.5558
lfoot -9.96456 1.39717
ltoes -33.4533
35
root 8.9704 16.2295 31.488 -159.163 -2.00287 179.35
lowerback -27.3621 -1.75665 -5.62224
upperback -0.977476 -0.964219 -0.550062
thorax 14.3076 -0.999492 2.18036
lowerneck -1.68708 -0.905678 -2.50417
upperneck 10.1684 -1.84863 3.95442
head 3.67068 -1.01309 1.67158
rclavicle -3.62782e-015 -2.14687e-014
rhumerus -30.0052 -14.4238 -82.9794
rradius 28.7246
rwrist 1.64499
rhand -6.40881 -52.0828
rfingers 7.12502
rthumb 19.4393 -81.1311
lclavicle -3.62782e-015 -2.14687e-014
lhumerus -25.2613 4.13363 83.5765
lradius 19.6069
lwrist -5.92055
lhand -20.9562 -11.9992
lfingers 7.12502
lthumb 5.41667 17.9116
rfemur -20.5803 8.22408 20.0993
rtibia 10.7998
rfoot -20.8422 -9.07578
rtoes -23.3782
lfemur -22.5895 -10.1289 -19.815
ltibia 12.4146
lfoot -9.95105 1.94079
ltoes -34.7763
36
root 8.97218 16.2313 31.4871 -159.227 -1.89686 179.263
lowerback -27.2799 -1.72895 -5.71409
upperback -0.951631 -0.894489 -0.587676
thorax 14.2885 -0.971409 2.21786
lowerneck -1.7585 -0.934792 -2.42848
upperneck 10.1978 -1.88515 3.90049
head 3.69395 -1.02897 1.63868
rclavicle -9.59136e-015 -2.10712e-014
rhumerus -30.1898 -15.0992 -82.571
rradius 28.0456
rwrist 2.31203
rhand -5.70522 -52.1831
rfingers 7.12502
rthumb 20.1157 -81.1617
lclavicle -9.59136e-015 -2.10712e-014
lhumerus -25.2904 5.61742 82.9066
lradius 18.5372
lwrist -6.81731
lhand -20.0133 -11.7287
lfingers 7.12502
lthumb 6.32699 18.1568
rfemur -20.4961 8.35391 20.0033
rtibia 10.7976
rfoot -20.8325 -9.1531
rtoes -23.3903
lfemur -22.4947 -9.72475 -20.0221
ltibia 12.3823
lfoot -9.89601 1.68909
ltoes -34.859
37
root 8.97288 16.2284 31.4898 -159.071 -1.89919 179.188
lowerback -27.3873 -1.7506 -5.76629
upperback -0.971761 -0.903724 -0.609796
thorax 14.3241 -0.981468 2.21663
lowerneck -1.85426 -0.954411 -2.37566
upperneck 10.2249 -1.9061 3.84926
head 3.72095 -1.03711 1.61139
rclavicle 3.47873e-015 1.07344e-014
rhumerus -30.3079 -15.7786 -82.2045
rradius 27.3547
rwrist 2.92895
rhand -6.00265 -51.7672
rfingers 7.12502
rthumb 19.8298 -80.7756
lclavicle 3.47873e-015 1.07344e-014
lhumerus -25.3906 6.66924 82.3867
lradius 17.4925
lwrist -7.72363
lhand -19.9947 -11.4046
lfingers 7.12502
lthumb 6.34497 18.4803
rfemur -20.6892 8.47419 19.863
rtibia 10.8177
rfoot -20.8456 -9.23734
rtoes -22.9409
lfemur -22.6329 -10.1075 -20.0246
ltibia 12.3098
lfoot -9.88428 2.0582
ltoes -34.4616
38
root 8.97181 16.225 31.485 -158.979 -1.89004 179.159
lowerback -27.552 -1.76609 -5.74836
upperback -0.964059 -0.921326 -0.608999
thorax 14.4248 -0.991876 2.19736
lowerneck -1.92306 -0.967103 -2.34207
upperneck 10.2447 -1.91777 3.80002
head 3.74018 -1.0419 1.5885
rclavicle 5.61567e-015 3.49861e-014
rhumerus -30.5576 -16.3372 -81.8439
rradius 26.8145
rwrist 3.46004
rhand -6.78387 -48.2073
rfingers 7.12502
rthumb 19.0787 -77.2916
lclavicle 5.61567e-015 3.49861e-014
lhumerus -25.5369 7.45291 81.9929
lradius 16.3763
lwrist -8.52524
lhand -20.4358 -11.1245
lfingers 7.12502
lthumb 5.91903 18.7728
rfemur -20.7359 8.40509 19.8216
rtibia 10.7587
rfoot -20.8736 -9.14381
rtoes -22.72
lfemur -22.7154 -9.85172 -20.1166
ltibia 12.3173
lfoot -9.90117 1.76234
ltoes -33.8877
39
root 8.97287 16.223 31.4792 -158.977 -1.86272 179.127
lowerback -27.6226 -1.76425 -5.77515
upperback -0.979585 -0.910253 -0.611007
thorax 14.444 -0.990701 2.21361
lowerneck -1.91983 -0.983904 -2.28194
upperneck 10.2557 -1.94012 3.75042
head 3.74229 -1.05294 1.56018
rclavicle -1.93815e-015 2.26615e-014
rhumerus -31.065 -16.7709 -81.4476
rradius 26.5156
rwrist 3.85542
rhand -6.49747 -51.979
rfingers 7.12502
rthumb 19.3541 -81.0359
lclavicle -1.93815e-015 2.26615e-014
lhumerus -25.7627 8.72304 81.3619
lradius 15.175
lwrist -9.90765
lhand -20.6955 -11.0805
lfingers 7.12502
lthumb 5.6683 18.8237
rfemur -20.6831 8.34704 19.8143
rtibia 10.7309
rfoot -20.8839 -9.20975
rtoes -23.4482
lfemur -22.5963 -10.1903 -20.1045
ltibia 12.1629
lfoot -9.97717 1.97949
ltoes -32.9033
40
root 8.9782 16.2258 31.4776 -159.079 -1.89097 179.154
lowerback -27.4889 -1.74943 -5.78021
upperback -0.95388 -0.889418 -0.61652
thorax 14.4001 -0.977942 2.22054
lowerneck -2.06233 -1.0252 -2.169
upperneck 10.2854 -1.9915 3.69538
head 3.77936 -1.07297 1.51956
rclavicle 9.59136e-015 1.43125e-014
rhumerus -31.375 -17.4699 -81.0635
rradius 26.0603
rwrist 4.41264
rhand -6.52665 -53.3181
rfingers 7.12502
rthumb 19.326 -82.3778
lclavicle 9.59136e-015 1.43125e-014
lhumerus -25.9411 10.3901 80.4885
lradius 14.0766
lwrist -11.8911
lhand -20.7286 -10.7458
lfingers 7.12502
lthumb 5.63643 19.1592
rfemur -20.5419 8.48632 19.8788
rtibia 10.6983
rfoot -20.8712 -9.41717
rtoes -23.6988
lfemur -22.5264 -9.84237 -20.0919
ltibia 12.2216
lfoot -9.99834 1.55854
ltoes -32.5276
41
root 8.98516 16.2229 31.4868 -158.787 -1.85558 179.188
lowerback -27.6456 -1.74822 -5.85174
upperback -1.04627 -0.880342 -0.576727
thorax 14.3752 -0.985407 2.30953
lowerneck -2.11084 -1.0466 -2.06709
upperneck 10.311 -2.01922 3.62773
head 3.79577 -1.08469 1.47755
rclavicle -6.75868e-015 -2.54444e-014
rhumerus -31.5891 -18.0341 -80.6661
rradius 25.5167
rwrist 4.82715
rhand -6.8973 -52.6786
rfingers 7.12502
rthumb 18.9696 -81.7736
lclavicle -6.75868e-015 -2.54444e-014
lhumerus -26.1987 12.3647 79.509
lradius 13.0769
lwrist -14.3781
lhand -20.4491 -10.5499
lfingers 7.12502
lthumb 5.90625 19.3478
rfemur -21.0273 8.71968 19.8568
rtibia 10.8771
rfoot -20.8345 -9.59103
rtoes -23.271
lfemur -22.9939 -9.70949 -19.943
ltibia 12.3884
lfoot -9.98507 1.52343
ltoes -33.1725
42
root 8.98419 16.2295 31.4857 -158.991 -1.79192 179.173
lowerback -27.4467 -1.72977 -5.84276
upperback -0.996141 -0.856866 -0.591865
thorax 14.3245 -0.968369 2.29903
lowerneck -2.19692 -1.06126 -1.95955
upperneck 10.3293 -2.03531 3.55758
head 3.81636 -1.0894 1.43411
rclavicle -4.47266e-016 1.11319e-014
rhumerus -31.8276 -18.5881 -80.2512
rradius 24.9545
rwrist 5.25921
rhand -6.65168 -52.234
rfingers 7.12502
rthumb 19.2058 -81.3057
lclavicle -4.47266e-016 1.11319e-014
lhumerus -26.594 15.0014 78.1405
lradius 12.0541
lwrist -17.5487
lhand -19.844 -10.9297
lfingers 7.12502
lthumb 6.49044 18.9508
rfemur -20.858 8.73063 19.8102
rtibia 10.9208
rfoot -20.817 -9.57416
rtoes -22.9451
lfemur -22.7399 -9.9335 -19.9548
ltibia 12.3233
lfoot -9.97711 1.87291
ltoes -34.2679
43
root 8.98047 16.2203 31.471 -159.052 -1.83431 179.101
lowerback -27.6021 -1.78225 -5.82548
upperback -0.946581 -0.915486 -0.590926
thorax 14.4743 -0.996468 2.26415
lowerneck -2.20654 -1.05619 -1.95256
upperneck 10.3402 -2.0235 3.50383
head 3.82053 -1.08523 1.41534
rclavicle -1.78906e-014 -2.82274e-014
rhumerus -32.122 -19.4021 -79.6205
rradius 24.3222
rwrist 5.99884
rhand -6.03176 -52.0111
rfingers 7.12502
rthumb 19.8018 -81.0224
lclavicle -1.78906e-014 -2.82274e-014
lhumerus -27.0696 18.0635 76.566
lradius 10.9077
lwrist -20.7908
lhand -19.5301 -11.7242
lfingers 7.12502
lthumb 6.79343 18.1468
rfemur -20.5928 8.38255 19.823
rtibia 10.7465
rfoot -20.8735 -9.24447
rtoes -23.1209
lfemur -22.4696 -10.0381 -20.1412
ltibia 12.165
lfoot -9.97484 1.80627
ltoes -34.1612
44
root 9.00226 16.2264 31.4979 -159.626 -1.76013 180.009
lowerback -26.5663 -1.58594 -5.23228
upperback -0.967611 -0.923173 -0.226534
thorax 13.8802 -0.945899 2.36126
lowerneck -2.21419 -1.05067 -1.97236
upperneck 10.368 -2.01035 3.44387
head 3.83056 -1.082 1.39942
rclavicle 2.93207e-015 5.56597e-015
rhumerus -32.5426 -20.1866 -78.8483
rradius 23.7956
rwrist 6.66418
rhand -5.95674 -50.4953
rfingers 7.12502
rthumb 19.8739 -79.4992
lclavicle 2.93207e-015 5.56597e-015
lhumerus -27.0601 18.3537 76.5691
lradius 9.54777
lwrist -20.9574
lhand -20.3737 -12.3357
lfingers 7.12502
lthumb 5.97901 17.56
rfemur -20.3842 9.72461 20.8288
rtibia 11.0545
rfoot -20.8459 -10.0924
rtoes -23.4841
lfemur -22.2694 -9.62722 -18.8261
ltibia 12.4395
lfoot -9.94592 2.00364
ltoes -33.894
45
root 9.00691 16.2357 31.5094 -159.812 -1.93035 179.897
lowerback -26.1573 -1.65776 -5.27387
upperback -0.972422 -1.01354 -0.291828
thorax 13.6571 -0.978366 2.28173
lowerneck -2.25306 -1.08258 -1.86843
upperneck 10.3822 -2.05426 3.3926
head 3.84191 -1.10129 1.36183
rclavicle 1.92821e-014 4.53229e-014
rhumerus -32.8681 -20.9162 -78.442
rradius 23.319
rwrist 7.28119
rhand -6.42701 -47.5924
rfingers 7.12502
rthumb 19.4218 -76.6424
lclavicle 1.92821e-014 4.53229e-014
lhumerus -27.1532 18.5029 76.3103
lradius 8.55371
lwrist -21.3351
lhand -20.8959 -12.0548
lfingers 7.12502
lthumb 5.47489 17.8545
rfemur -20.2075 9.76654 20.7569
rtibia 11.0451
rfoot -20.766 -10.4668
rtoes -24.076
lfemur -22.2332 -9.62397 -18.9194
ltibia 12.6016
lfoot -9.86868 1.84448
ltoes -33.729
